<?xml version="1.0" standalone="no"?>
<!DOCTYPE svg PUBLIC "-//W3C//DTD SVG 20010904//EN"
 "http://www.w3.org/TR/2001/REC-SVG-20010904/DTD/svg10.dtd">
<svg version="1.0" xmlns="http://www.w3.org/2000/svg"
 width="700.000000pt" height="700.000000pt" viewBox="0 0 700.000000 700.000000"
 preserveAspectRatio="xMidYMid meet">
<metadata>
Created by potrace 1.14, written by Peter Selinger 2001-2017
</metadata>
<g transform="translate(0.000000,700.000000) scale(0.100000,-0.100000)"
fill="#000000" stroke="none">
<path d="M3280 6994 c-19 -2 -84 -9 -145 -14 -643 -63 -1264 -315 -1805 -734
-140 -108 -473 -442 -584 -586 -411 -530 -654 -1132 -728 -1795 -17 -155 -17
-575 0 -730 52 -469 198 -931 418 -1327 290 -523 731 -983 1239 -1294 439
-269 920 -432 1460 -496 145 -17 576 -17 730 0 822 91 1556 447 2131 1034 203
206 348 390 487 618 274 449 433 916 499 1465 16 136 16 592 0 730 -86 725
-352 1347 -803 1885 -121 144 -349 368 -494 484 -505 405 -1117 661 -1775 742
-117 15 -553 27 -630 18z m475 -784 c368 -34 696 -130 1021 -299 556 -289
1004 -772 1252 -1351 329 -766 284 -1665 -119 -2392 -363 -654 -978 -1135
-1690 -1322 -386 -102 -777 -120 -1161 -55 -1112 189 -2002 1049 -2223 2149
-42 209 -50 295 -49 550 0 262 12 381 60 595 87 392 276 787 529 1105 87 110
285 310 403 407 426 352 973 573 1522 616 103 8 353 6 455 -3z"/>
<path d="M3920 3985 l-745 -745 -290 290 -290 290 -265 -265 -265 -265 555
-555 555 -555 1010 1010 1010 1010 -265 265 -265 265 -745 -745z"/>
</g>
</svg>
